<svg width="52" height="68" viewBox="0 0 52 68" fill="none" xmlns="http://www.w3.org/2000/svg">
<path d="M39.0085 33.5563L41.0994 33.5608V33.5563H39.0085ZM26.0049 46.9935L25.9985 49.0845L26.0114 49.0844L26.0049 46.9935ZM12.9915 33.5563H10.9006L10.9006 33.5623L12.9915 33.5563ZM12.9915 15.7909L10.9006 15.7849V15.7909H12.9915ZM26.0049 2.36377L26.0114 0.27284L26.0001 0.272866L26.0049 2.36377ZM39.0085 15.7909H41.0994L41.0994 15.7849L39.0085 15.7909ZM26.0049 57.3004L25.9995 59.3914L26.0113 59.3913L26.0049 57.3004ZM12.9916 28.4961C11.8368 28.4961 10.9007 29.4322 10.9007 30.587C10.9007 31.7418 11.8368 32.6779 12.9916 32.6779V28.4961ZM39.0085 32.6779C40.1633 32.6779 41.0994 31.7418 41.0994 30.587C41.0994 29.4322 40.1633 28.4961 39.0085 28.4961V32.6779ZM28.0861 46.9935C28.0861 45.8388 27.1499 44.9026 25.9952 44.9026C24.8404 44.9026 23.9042 45.8388 23.9042 46.9935H28.0861ZM23.9042 65.091C23.9042 66.2458 24.8404 67.1819 25.9952 67.1819C27.1499 67.1819 28.0861 66.2458 28.0861 65.091H23.9042ZM36.9176 33.5518C36.911 36.5799 35.7432 39.4692 33.6894 41.5915L36.6945 44.4996C39.5141 41.5859 41.0905 37.6519 41.0994 33.5608L36.9176 33.5518ZM33.6894 41.5915C31.6378 43.7115 28.8712 44.8938 25.9985 44.9026L26.0114 49.0844C30.0332 49.072 33.8727 47.4155 36.6945 44.4996L33.6894 41.5915ZM26.0114 44.9026C23.1375 44.8938 20.3697 43.7116 18.3165 41.5915L15.3125 44.5008C18.1358 47.416 21.976 49.072 25.9985 49.0844L26.0114 44.9026ZM18.3165 41.5915C16.2611 39.4692 15.0912 36.5795 15.0824 33.5503L10.9006 33.5623C10.9124 37.6541 12.4914 41.5877 15.3125 44.5008L18.3165 41.5915ZM15.0824 33.5563V15.7909H10.9006V33.5563H15.0824ZM15.0824 15.797C15.0912 12.7689 16.2612 9.8805 18.3165 7.75982L15.3136 4.84947C12.4919 7.76093 10.9124 11.6937 10.9006 15.7849L15.0824 15.797ZM18.3165 7.75982C20.3696 5.64142 23.137 4.46131 26.0098 4.45467L26.0001 0.272866C21.9783 0.282159 18.1376 1.93571 15.3136 4.84947L18.3165 7.75982ZM25.9985 4.45467C28.8698 4.46352 31.6351 5.64464 33.6865 7.76282L36.6905 4.85359C33.869 1.9402 30.0312 0.285261 26.0114 0.272871L25.9985 4.45467ZM33.6865 7.76282C35.74 9.88324 36.9088 12.7704 36.9176 15.797L41.0994 15.7849C41.0876 11.6958 39.5098 7.76474 36.6905 4.85359L33.6865 7.76282ZM36.9176 15.7909V33.5563H41.0994V15.7909H36.9176ZM46.9091 33.5503C46.8926 39.3107 44.6686 44.8173 40.743 48.8708L43.7469 51.7801C48.4384 46.9358 51.0714 40.3852 51.0909 33.5623L46.9091 33.5503ZM40.743 48.8708C36.8195 52.9221 31.5174 55.1927 25.9986 55.2095L26.0113 59.3913C32.6788 59.371 39.0533 56.6266 43.7469 51.7801L40.743 48.8708ZM26.0104 55.2095C20.49 55.1951 15.1855 52.9255 11.2602 48.874L8.25681 51.7838C12.9527 56.6306 19.3302 59.3739 25.9995 59.3913L26.0104 55.2095ZM11.2602 48.874C7.33265 44.8202 5.10739 39.3122 5.0909 33.5503L0.9091 33.5623C0.928633 40.3871 3.5631 46.9393 8.25681 51.7838L11.2602 48.874ZM12.9916 32.6779H39.0085V28.4961H12.9916V32.6779ZM16.9589 67.1819H35.0411V63.0001H16.9589V67.1819ZM23.9042 46.9935V65.091H28.0861V46.9935H23.9042Z" fill="#093030"/>
</svg>
