<svg width="16" height="21" viewBox="0 0 16 21" fill="none" xmlns="http://www.w3.org/2000/svg">
<path d="M14.4122 16.4892L14.4184 15.8463H14.4122V16.4892ZM15.1083 14.9694L14.5837 15.3409L14.5922 15.353L14.6013 15.3646L15.1083 14.9694ZM13.502 11.0976L14.1353 10.9865L14.1339 10.979L13.502 11.0976ZM12.1242 4.43704L12.6314 4.04199L12.6301 4.04035L12.1242 4.43704ZM8.02329 2.40049L8.02475 1.75762L8.02117 1.75764L8.02329 2.40049ZM3.92237 4.43704L3.41688 4.03987L3.41522 4.042L3.92237 4.43704ZM2.54814 11.0976L1.91623 10.9792L1.91495 10.9865L2.54814 11.0976ZM0.941857 14.9694L1.44536 15.3691L1.45632 15.3553L1.4665 15.3409L0.941857 14.9694ZM1.63803 16.4892V15.8462L1.62583 15.8464L1.63803 16.4892ZM7.38405 2.4005C7.38405 2.75554 7.67187 3.04336 8.02691 3.04336C8.38195 3.04336 8.66977 2.75554 8.66977 2.4005H7.38405ZM8.66977 1.14282C8.66977 0.787782 8.38195 0.499965 8.02691 0.499965C7.67187 0.499965 7.38405 0.787782 7.38405 1.14282H8.66977ZM8.02329 20L8.02463 19.3571H8.02329L8.02329 20ZM14.4059 17.132C14.7034 17.1349 14.9933 17.0487 15.2413 16.8869L14.5387 15.8102C14.5001 15.8353 14.4585 15.8467 14.4184 15.8464L14.4059 17.132ZM15.2413 16.8869C15.489 16.7252 15.6834 16.4959 15.8057 16.2289L14.6368 15.6934C14.613 15.7454 14.5776 15.7847 14.5387 15.8102L15.2413 16.8869ZM15.8057 16.2289C15.9279 15.9621 15.9743 15.6663 15.9412 15.3753L14.6637 15.5208C14.6706 15.5811 14.6607 15.6413 14.6368 15.6934L15.8057 16.2289ZM15.9412 15.3753C15.9081 15.0843 15.7962 14.8061 15.6153 14.5741L14.6013 15.3646C14.634 15.4066 14.6569 15.4605 14.6637 15.5208L15.9412 15.3753ZM15.633 14.5979C14.8781 13.5318 14.365 12.2965 14.1352 10.9865L12.8689 11.2087C13.1311 12.7033 13.7171 14.117 14.5837 15.3409L15.633 14.5979ZM14.1339 10.979C14.035 10.4525 13.9927 9.90866 13.9634 9.33841C13.9349 8.78218 13.9181 8.17536 13.8669 7.5928C13.7627 6.40789 13.5077 5.16705 12.6314 4.042L11.617 4.83209C12.2708 5.6714 12.4908 6.62099 12.5861 7.70535C12.6346 8.25743 12.6486 8.80496 12.6794 9.40438C12.7095 9.98977 12.7551 10.6029 12.8702 11.2162L14.1339 10.979ZM12.6301 4.04035C12.0741 3.3314 11.3736 2.75756 10.5772 2.36205L10.0053 3.51358C10.6268 3.82222 11.1781 4.27233 11.6183 4.83373L12.6301 4.04035ZM10.5772 2.36205C9.7806 1.96647 8.9089 1.75965 8.02475 1.75763L8.02182 3.04335C8.70675 3.04491 9.38396 3.20502 10.0053 3.51358L10.5772 2.36205ZM8.02117 1.75764C7.13736 1.76054 6.26614 1.96774 5.46989 2.36316L6.04176 3.5147C6.6632 3.20608 7.34039 3.0456 8.0254 3.04334L8.02117 1.75764ZM5.46989 2.36316C4.67378 2.75852 3.97328 3.33173 3.41688 4.03987L4.42787 4.83421C4.86864 4.27322 5.42018 3.82338 6.04176 3.5147L5.46989 2.36316ZM3.41522 4.042C2.53874 5.16721 2.28467 6.4073 2.18147 7.59185C2.13074 8.17409 2.1144 8.78096 2.08616 9.33719C2.0572 9.90753 2.0151 10.4518 1.91627 10.9792L3.18 11.216C3.2951 10.6017 3.34048 9.98806 3.37022 9.40239C3.40067 8.80261 3.41425 8.25537 3.46233 7.70345C3.55675 6.61968 3.77587 5.67124 4.42953 4.83209L3.41522 4.042ZM1.91495 10.9865C1.68513 12.2965 1.17213 13.5318 0.417213 14.5979L1.4665 15.3409C2.33312 14.117 2.91911 12.7033 3.18132 11.2087L1.91495 10.9865ZM0.438359 14.5697C0.254375 14.8014 0.14014 15.0805 0.10559 15.3729L1.38243 15.5238C1.38951 15.4638 1.41261 15.4103 1.44536 15.3691L0.438359 14.5697ZM0.10559 15.3729C0.0710437 15.6653 0.11711 15.9629 0.239973 16.2312L1.40889 15.6957C1.3851 15.6438 1.37533 15.5838 1.38243 15.5238L0.10559 15.3729ZM0.239973 16.2312C0.362914 16.4995 0.558913 16.7299 0.808727 16.8913L1.50654 15.8114C1.46789 15.7865 1.4326 15.7475 1.40889 15.6957L0.239973 16.2312ZM0.808727 16.8913C1.05889 17.053 1.35108 17.1376 1.65022 17.1319L1.62583 15.8464C1.58613 15.8472 1.54484 15.8362 1.50654 15.8114L0.808727 16.8913ZM1.63803 17.132H14.4122V15.8463H1.63803V17.132ZM8.66977 2.4005V1.14282H7.38405V2.4005H8.66977ZM9.21515 18.0786C9.21548 18.2507 9.18334 18.4204 9.12124 18.578L10.3174 19.0495C10.4394 18.74 10.5015 18.4094 10.5009 18.0762L9.21515 18.0786ZM9.12124 18.578C9.05917 18.7354 8.96877 18.8766 8.85662 18.9941L9.78676 19.8818C10.0155 19.642 10.1954 19.359 10.3174 19.0495L9.12124 18.578ZM8.85662 18.9941C8.74453 19.1116 8.61307 19.203 8.47061 19.2647L8.98132 20.4446C9.28449 20.3134 9.55792 20.1216 9.78676 19.8818L8.85662 18.9941ZM8.47061 19.2647C8.32821 19.3263 8.17675 19.3574 8.02463 19.3571L8.02196 20.6428C8.35198 20.6435 8.6781 20.5758 8.98132 20.4446L8.47061 19.2647ZM8.02329 19.3571C7.87135 19.3571 7.72012 19.3257 7.57798 19.264L7.06546 20.4431C7.36811 20.5747 7.6937 20.6428 8.02329 20.6428L8.02329 19.3571ZM7.57798 19.264C7.43577 19.2021 7.30457 19.1107 7.19273 18.9933L6.26171 19.88C6.49004 20.1197 6.76289 20.3116 7.06546 20.4431L7.57798 19.264ZM7.19273 18.9933C7.08084 18.8758 6.99066 18.7347 6.92873 18.5774L5.73236 19.0483C5.85405 19.3574 6.03344 19.6403 6.26171 19.88L7.19273 18.9933ZM6.92873 18.5774C6.86679 18.42 6.83474 18.2504 6.83506 18.0786L5.54935 18.0762C5.54872 18.4089 5.61069 18.7392 5.73236 19.0483L6.92873 18.5774Z" fill="#093030"/>
</svg>
